<svg width="40" height="40" viewBox="0 0 40 40" fill="none" xmlns="http://www.w3.org/2000/svg">
<path d="M20 40C16.0444 40 12.1776 38.827 8.8886 36.6294C5.59962 34.4318 3.03617 31.3082 1.52242 27.6537C0.00866569 23.9991 -0.387401 19.9778 0.384303 16.0982C1.15601 12.2186 3.06082 8.65492 5.85787 5.85787C8.65492 3.06082 12.2186 1.15601 16.0982 0.384303C19.9778 -0.387401 23.9991 0.00866569 27.6537 1.52242C31.3082 3.03617 34.4318 5.59962 36.6294 8.8886C38.827 12.1776 40 16.0444 40 20C40 25.3043 37.8929 30.3914 34.1421 34.1421C30.3914 37.8929 25.3043 40 20 40ZM20 3.07693C16.6529 3.07693 13.381 4.06945 10.598 5.92898C7.81506 7.78851 5.64599 10.4315 4.36512 13.5238C3.08426 16.6161 2.74912 20.0188 3.4021 23.3015C4.05508 26.5843 5.66685 29.5997 8.03358 31.9664C10.4003 34.3332 13.4157 35.9449 16.6985 36.5979C19.9812 37.2509 23.3839 36.9158 26.4762 35.6349C29.5685 34.354 32.2115 32.1849 34.071 29.402C35.9306 26.619 36.9231 23.3471 36.9231 20C36.9231 15.5117 35.1401 11.2073 31.9664 8.03358C28.7927 4.85989 24.4883 3.07693 20 3.07693Z" fill="white"/>
<path d="M20 21.5385C18.4787 21.5385 16.9914 21.0873 15.7264 20.2421C14.4614 19.3968 13.4755 18.1955 12.8933 16.7899C12.3111 15.3843 12.1587 13.8376 12.4555 12.3455C12.7524 10.8533 13.485 9.48267 14.5608 8.40688C15.6366 7.33109 17.0072 6.59847 18.4994 6.30166C19.9915 6.00485 21.5382 6.15719 22.9438 6.7394C24.3494 7.32161 25.5507 8.30755 26.396 9.57255C27.2412 10.8375 27.6924 12.3248 27.6924 13.8462C27.6924 15.8863 26.8819 17.8429 25.4393 19.2854C23.9967 20.728 22.0402 21.5385 20 21.5385ZM20 9.23078C19.0872 9.23078 18.1949 9.50147 17.4359 10.0086C16.6769 10.5158 16.0853 11.2366 15.736 12.0799C15.3867 12.9233 15.2953 13.8513 15.4733 14.7466C15.6514 15.6419 16.091 16.4643 16.7365 17.1097C17.382 17.7552 18.2043 18.1948 19.0996 18.3729C19.9949 18.551 20.9229 18.4596 21.7663 18.1102C22.6096 17.7609 23.3305 17.1693 23.8376 16.4103C24.3447 15.6513 24.6154 14.759 24.6154 13.8462C24.6154 12.6221 24.1292 11.4481 23.2636 10.5826C22.3981 9.71704 21.2241 9.23078 20 9.23078Z" fill="white"/>
<path d="M34.6924 32.3077C34.4789 32.3091 34.2674 32.2661 34.0714 32.1813C33.8754 32.0966 33.6992 31.972 33.554 31.8154C31.921 30.0342 29.9361 28.6113 27.7249 27.6368C25.5137 26.6623 23.1242 26.1573 20.7078 26.1538H19.2924C14.7881 26.1441 10.4568 27.8877 7.2155 31.0154C6.91602 31.2625 6.53417 31.3872 6.14656 31.3646C5.75895 31.3419 5.39424 31.1735 5.12559 30.8932C4.85694 30.6129 4.70422 30.2413 4.69807 29.8531C4.69192 29.4649 4.83279 29.0887 5.09242 28.8C8.90147 25.1184 13.995 23.0655 19.2924 23.0769H20.7078C23.5481 23.0833 26.3565 23.6771 28.9564 24.8208C31.5563 25.9646 33.8915 27.6336 35.8155 29.7231C36.0188 29.9423 36.1538 30.2159 36.204 30.5106C36.2543 30.8053 36.2176 31.1082 36.0985 31.3824C35.9794 31.6565 35.7829 31.89 35.5332 32.0544C35.2835 32.2187 34.9913 32.3067 34.6924 32.3077Z" fill="white"/>
</svg>
